<svg width="150" height="80" viewBox="0 0 150 80" fill="none" xmlns="http://www.w3.org/2000/svg">
<path d="M127.025 0C131.664 4.3659e-05 135.677 1.0699 139.064 3.20898C142.525 5.27444 145.213 8.0408 147.128 11.5078C149.042 14.9748 150 18.8476 150 23.126V78.7822H134.205V21.2451C134.205 19.9173 133.874 18.6993 133.211 17.5928C132.622 16.4864 131.774 15.6013 130.67 14.9375C129.566 14.2738 128.351 13.9415 127.025 13.9414C125.7 13.9414 124.484 14.2736 123.38 14.9375C122.276 15.6013 121.392 16.4865 120.729 17.5928C120.067 18.6993 119.735 19.9173 119.735 21.2451V56.874C119.735 61.3737 118.704 65.3573 116.643 68.8242C114.654 72.2911 111.93 75.0201 108.469 77.0117C105.008 79.0034 101.068 79.999 96.6494 79.999C92.3049 79.999 88.3656 79.0033 84.8311 77.0117C81.3702 75.0201 78.6454 72.2911 76.6572 68.8242C74.669 65.3573 73.6748 61.3737 73.6748 56.874V21.2451C73.6748 19.9173 73.3434 18.6993 72.6807 17.5928C72.0179 16.4864 71.1338 15.6013 70.0293 14.9375C68.9249 14.2738 67.71 13.9414 66.3848 13.9414C65.0593 13.9414 63.8438 14.2736 62.7393 14.9375C61.7085 15.6013 60.8619 16.4865 60.1992 17.5928C59.5365 18.6993 59.2051 19.9173 59.2051 21.2451V78.7822H22.9756C18.4101 78.7822 14.3965 77.75 10.9355 75.6846C7.47463 73.5454 4.78664 70.7423 2.87207 67.2754C0.957538 63.7347 4.3884e-05 59.8618 0 55.6572V1.32812H15.7959V57.5381C15.7959 59.5297 16.4954 61.263 17.8945 62.7383C19.2936 64.1398 20.9874 64.8408 22.9756 64.8408H43.4102V23.126C43.4102 18.8477 44.3668 14.9747 46.2812 11.5078C48.1958 8.04086 50.8838 5.27443 54.3447 3.20898C57.8057 1.06976 61.8192 0 66.3848 0C71.0239 2.46041e-05 75.0742 1.06979 78.5352 3.20898C81.996 5.27442 84.6831 8.04091 86.5977 11.5078C88.5122 14.9748 89.4697 18.8475 89.4697 23.126V58.7549C89.4697 60.0826 89.8012 61.2998 90.4639 62.4062C91.1266 63.5127 91.974 64.3976 93.0049 65.0615C94.1094 65.7253 95.3241 66.0576 96.6494 66.0576C97.9749 66.0576 99.1904 65.7254 100.295 65.0615C101.399 64.3977 102.283 63.5126 102.945 62.4062C103.608 61.2998 103.939 60.0827 103.939 58.7549V23.126C103.939 18.8476 104.897 14.9748 106.812 11.5078C108.726 8.0408 111.414 5.27444 114.875 3.20898C118.41 1.06976 122.46 0 127.025 0Z" fill="black"/>
</svg>
